<?xml version="1.0" encoding="utf-8"?>
<!-- Generator: Adobe Illustrator 16.0.0, SVG Export Plug-In . SVG Version: 6.00 Build 0)  -->
<!DOCTYPE svg PUBLIC "-//W3C//DTD SVG 1.1//EN" "http://www.w3.org/Graphics/SVG/1.1/DTD/svg11.dtd">
<svg version="1.1" id="Layer_1" xmlns="http://www.w3.org/2000/svg" xmlns:xlink="http://www.w3.org/1999/xlink" x="0px" y="0px"
	 width="100px" height="100px" viewBox="0 0 100 100" enable-background="new 0 0 100 100" xml:space="preserve">
<g>
	<polygon fill="#FFFFFF" points="75,31.203 75,16.203 70,16.203 70,31.203 55,31.203 55,36.203 70,36.203 70,51.203 75,51.203 
		75,36.203 90,36.203 90,31.203 	"/>
	<path fill="#FFFFFF" d="M53.677,16.203c0,0-15.699,0-20.933,0c-9.384,0-18.216,7.11-18.216,15.346
		c0,8.416,6.397,15.209,15.944,15.209c0.664,0,1.309-0.014,1.941-0.059c-0.62,1.186-1.063,2.521-1.063,3.908
		c0,2.34,1.258,4.236,2.849,5.783c-1.202,0-2.362,0.035-3.629,0.035C18.947,56.426,10,63.83,10,71.506
		c0,7.561,9.808,12.291,21.432,12.291c13.252,0,20.571-7.52,20.571-15.082c0-6.062-1.788-9.691-7.319-13.604
		c-1.892-1.34-5.51-4.596-5.51-6.512c0-2.243,0.64-3.349,4.018-5.987c3.462-2.705,5.912-6.508,5.912-10.931
		c0-5.267-2.346-10.398-6.748-12.092h6.637L53.677,16.203z M46.366,67.412c0.166,0.699,0.256,1.422,0.256,2.158
		c0,6.109-3.937,10.883-15.232,10.883c-8.034,0-13.837-5.086-13.837-11.195c0-5.988,7.197-10.973,15.231-10.885
		c1.875,0.02,3.623,0.32,5.208,0.834C42.354,62.242,45.483,63.955,46.366,67.412z M33.501,44.623
		c-5.394-0.161-10.519-6.033-11.449-13.114c-0.931-7.083,2.685-12.503,8.077-12.343c5.391,0.162,10.519,5.845,11.45,12.927
		C42.509,39.176,38.893,44.785,33.501,44.623z"/>
</g>
</svg>
