<?xml version="1.0" encoding="utf-8"?>
<!-- Generator: Adobe Illustrator 16.0.0, SVG Export Plug-In . SVG Version: 6.00 Build 0)  -->
<!DOCTYPE svg PUBLIC "-//W3C//DTD SVG 1.1//EN" "http://www.w3.org/Graphics/SVG/1.1/DTD/svg11.dtd">
<svg version="1.1" id="Layer_1" xmlns="http://www.w3.org/2000/svg" xmlns:xlink="http://www.w3.org/1999/xlink" x="0px" y="0px"
	 width="100px" height="100px" viewBox="0 0 100 100" enable-background="new 0 0 100 100" xml:space="preserve">
<g display="none">
	
		<line display="inline" fill="none" stroke="#A9CCDB" stroke-width="0.25" stroke-miterlimit="10" x1="0.001" y1="-0.001" x2="100" y2="-0.001"/>
	
		<line display="inline" fill="none" stroke="#A9CCDB" stroke-width="0.25" stroke-miterlimit="10" x1="0.001" y1="9.999" x2="100" y2="9.999"/>
	
		<line display="inline" fill="none" stroke="#A9CCDB" stroke-width="0.25" stroke-miterlimit="10" x1="0.001" y1="19.999" x2="100" y2="19.999"/>
	
		<line display="inline" fill="none" stroke="#A9CCDB" stroke-width="0.25" stroke-miterlimit="10" x1="0.001" y1="29.999" x2="100" y2="29.999"/>
	
		<line display="inline" fill="none" stroke="#A9CCDB" stroke-width="0.25" stroke-miterlimit="10" x1="0.001" y1="39.999" x2="100" y2="39.999"/>
	
		<line display="inline" fill="none" stroke="#A9CCDB" stroke-width="0.25" stroke-miterlimit="10" x1="0.001" y1="49.999" x2="100" y2="49.999"/>
	
		<line display="inline" fill="none" stroke="#A9CCDB" stroke-width="0.25" stroke-miterlimit="10" x1="0.001" y1="59.998" x2="100" y2="59.998"/>
	
		<line display="inline" fill="none" stroke="#A9CCDB" stroke-width="0.25" stroke-miterlimit="10" x1="0.001" y1="69.998" x2="100" y2="69.998"/>
	
		<line display="inline" fill="none" stroke="#FF0000" stroke-width="0.25" stroke-miterlimit="10" x1="0.001" y1="80" x2="100" y2="80"/>
	
		<line display="inline" fill="none" stroke="#A9CCDB" stroke-width="0.25" stroke-miterlimit="10" x1="0.001" y1="90" x2="100" y2="90"/>
	
		<line display="inline" fill="none" stroke="#A9CCDB" stroke-width="0.25" stroke-miterlimit="10" x1="0" y1="-0.001" x2="0" y2="100"/>
	
		<line display="inline" fill="none" stroke="#A9CCDB" stroke-width="0.25" stroke-miterlimit="10" x1="10" y1="-0.001" x2="10" y2="100"/>
	
		<line display="inline" fill="none" stroke="#A9CCDB" stroke-width="0.25" stroke-miterlimit="10" x1="20.001" y1="-0.001" x2="20.001" y2="100"/>
	
		<line display="inline" fill="none" stroke="#A9CCDB" stroke-width="0.25" stroke-miterlimit="10" x1="30" y1="-0.001" x2="30" y2="100"/>
	
		<line display="inline" fill="none" stroke="#A9CCDB" stroke-width="0.25" stroke-miterlimit="10" x1="40" y1="-0.001" x2="40" y2="100"/>
	
		<line display="inline" fill="none" stroke="#A9CCDB" stroke-width="0.25" stroke-miterlimit="10" x1="50" y1="-0.001" x2="50" y2="100"/>
	
		<line display="inline" fill="none" stroke="#A9CCDB" stroke-width="0.25" stroke-miterlimit="10" x1="60" y1="-0.001" x2="60" y2="100"/>
	
		<line display="inline" fill="none" stroke="#A9CCDB" stroke-width="0.25" stroke-miterlimit="10" x1="70" y1="-0.001" x2="70" y2="100"/>
	
		<line display="inline" fill="none" stroke="#A9CCDB" stroke-width="0.25" stroke-miterlimit="10" x1="80" y1="-0.001" x2="80" y2="100"/>
	
		<line display="inline" fill="none" stroke="#A9CCDB" stroke-width="0.25" stroke-miterlimit="10" x1="90" y1="-0.001" x2="90" y2="100"/>
</g>
<path fill="#FFFFFF" d="M56.736,92.795H40.699V50H30V35.252l10.698-0.006l-0.018-8.688c0-12.032,3.263-19.353,17.436-19.353h11.799
	v14.751h-7.375c-5.518,0-5.783,2.061-5.783,5.908l-0.021,7.382H70l-1.564,14.749L56.746,50L56.736,92.795L56.736,92.795z"/>
</svg>
