<?xml version="1.0" encoding="utf-8"?>
<!-- Generator: Adobe Illustrator 16.0.0, SVG Export Plug-In . SVG Version: 6.00 Build 0)  -->
<!DOCTYPE svg PUBLIC "-//W3C//DTD SVG 1.1//EN" "http://www.w3.org/Graphics/SVG/1.1/DTD/svg11.dtd">
<svg version="1.1" id="Layer_1" xmlns="http://www.w3.org/2000/svg" xmlns:xlink="http://www.w3.org/1999/xlink" x="0px" y="0px"
	 width="100px" height="100px" viewBox="0 0 100 100" enable-background="new 0 0 100 100" xml:space="preserve">
<path fill="#FFFFFF" d="M80.767,54.379c0.187-1.381,0.294-2.786,0.294-4.215c0-17.153-13.98-31.061-31.224-31.061
	c-1.713,0-3.395,0.141-5.029,0.409c-2.931-1.91-6.42-3.023-10.175-3.023C24.336,16.488,16,24.83,16,35.123
	c0,3.745,1.103,7.224,3,10.145c-0.255,1.596-0.386,3.231-0.386,4.896c0,17.156,13.974,31.062,31.223,31.062
	c1.946,0,3.842-0.19,5.683-0.523c2.862,1.776,6.234,2.811,9.849,2.811C75.661,83.513,84,75.168,84,64.877
	C84,60.986,82.811,57.369,80.767,54.379z M52.754,73.057c-9.92,0.516-14.564-1.679-18.817-5.671
	c-4.75-4.458-2.843-9.543,1.028-9.801c3.868-0.259,6.189,4.384,8.254,5.676c2.061,1.286,9.907,4.218,14.05-0.521
	c4.513-5.155-3.001-7.824-8.507-8.633c-7.863-1.164-17.791-5.417-17.019-13.8c0.772-8.377,7.117-12.672,13.792-13.278
	c8.511-0.772,14.05,1.29,18.432,5.028c5.068,4.321,2.327,9.151-0.902,9.539c-3.216,0.386-6.826-7.105-13.917-7.219
	c-7.308-0.115-12.248,7.605-3.225,9.8c9.026,2.192,18.692,3.092,22.175,11.345C71.581,63.774,62.686,72.539,52.754,73.057z"/>
</svg>
