<?xml version="1.0" encoding="utf-8"?>
<!-- Generator: Adobe Illustrator 16.0.0, SVG Export Plug-In . SVG Version: 6.00 Build 0)  -->
<!DOCTYPE svg PUBLIC "-//W3C//DTD SVG 1.1//EN" "http://www.w3.org/Graphics/SVG/1.1/DTD/svg11.dtd">
<svg version="1.1" id="Layer_1" xmlns="http://www.w3.org/2000/svg" xmlns:xlink="http://www.w3.org/1999/xlink" x="0px" y="0px"
	 width="100px" height="100px" viewBox="0 0 100 100" enable-background="new 0 0 100 100" xml:space="preserve">
<g>
	<path fill="#FFFFFF" d="M50,10c-22.091,0-40,17.909-40,40.001C10,72.092,27.908,90,50,90s40-17.908,40-39.999
		C90,27.909,72.092,10,50,10z M53.879,63.447c-3.635-0.282-5.16-2.082-8.009-3.812c-1.567,8.216-3.481,16.094-9.151,20.209
		c-1.75-12.42,2.57-21.747,4.576-31.649c-3.42-5.759,0.412-17.347,7.626-14.49c8.877,3.512-7.688,21.407,3.433,23.642
		c11.611,2.334,16.351-20.145,9.151-27.455c-10.403-10.555-30.281-0.24-27.836,14.872c0.595,3.695,4.412,4.815,1.525,9.915
		c-6.658-1.477-8.645-6.728-8.389-13.729c0.412-11.459,10.295-19.481,20.209-20.591c12.538-1.403,24.306,4.603,25.931,16.396
		C74.773,50.066,67.285,64.483,53.879,63.447z"/>
</g>
</svg>
