<?xml version="1.0" encoding="utf-8"?>
<!-- Generator: Adobe Illustrator 16.0.0, SVG Export Plug-In . SVG Version: 6.00 Build 0)  -->
<!DOCTYPE svg PUBLIC "-//W3C//DTD SVG 1.1//EN" "http://www.w3.org/Graphics/SVG/1.1/DTD/svg11.dtd">
<svg version="1.1" id="Layer_1" xmlns="http://www.w3.org/2000/svg" xmlns:xlink="http://www.w3.org/1999/xlink" x="0px" y="0px"
	 width="100px" height="100px" viewBox="0 0 100 100" enable-background="new 0 0 100 100" xml:space="preserve">
<g>
	<path fill="#FFFFFF" d="M50,10c-22.091,0-40,17.911-40,40.002C10,72.092,27.908,90,50,90c22.09,0,40-17.908,40-39.998
		C90,27.911,72.09,10,50,10z M82.938,48.23c-8.152-0.836-15.964-1.089-23.376,0.059c-0.91-2.285-1.852-4.524-2.848-6.676
		c7.303-2.984,13.453-7.049,18.841-12.509C79.865,34.369,82.554,40.993,82.938,48.23z M49.998,16.984
		c8.249,0,15.774,3.045,21.56,8.043c-5.145,5.002-11.039,8.652-17.461,11.304c-3.694-7.045-7.871-13.188-12.458-18.239
		C44.314,17.394,47.104,16.984,49.998,16.984z M35.132,20.55c4.748,5.798,8.908,11.745,12.452,18.077
		c-9.305,2.812-19.457,3.968-29.855,4.426C19.843,33.189,26.366,24.983,35.132,20.55z M16.982,50.002
		c0-0.445,0.049-0.878,0.067-1.316c13.177-0.607,24.071-2.061,33.271-4.833c0.945,1.917,1.825,3.887,2.673,5.882
		c-10.301,2.977-19.733,9.376-28.114,21.662C19.965,65.631,16.982,58.169,16.982,50.002z M49.998,83.016
		c-7.644,0-14.66-2.619-20.256-6.981c6.855-10.65,15.022-17.394,25.527-20.547c2.808,7.692,4.987,16.029,6.572,25.306
		C58.159,82.21,54.178,83.016,49.998,83.016z M68.142,77.571c-1.692-8.311-3.842-16.198-6.409-23.521
		c6.203-0.958,13.165-0.884,21.015,0.146C81.507,63.967,75.991,72.395,68.142,77.571z"/>
</g>
</svg>
