<?xml version="1.0" encoding="utf-8"?>
<!-- Generator: Adobe Illustrator 16.0.0, SVG Export Plug-In . SVG Version: 6.00 Build 0)  -->
<!DOCTYPE svg PUBLIC "-//W3C//DTD SVG 1.1//EN" "http://www.w3.org/Graphics/SVG/1.1/DTD/svg11.dtd">
<svg version="1.1" id="Layer_1" xmlns="http://www.w3.org/2000/svg" xmlns:xlink="http://www.w3.org/1999/xlink" x="0px" y="0px"
	 width="100px" height="100px" viewBox="0 0 100 100" enable-background="new 0 0 100 100" xml:space="preserve">
<g>
	<path fill="#FFFFFF" d="M43.142,48.492l6.856,5.578l6.873-5.592l3.479-2.83l26.206-22.432c-0.43-0.128-0.876-0.218-1.346-0.218
		H14.792c-0.471,0-0.918,0.09-1.35,0.219l26.221,22.443L43.142,48.492z"/>
	<path fill="#FFFFFF" d="M49.998,59.792l-10.16-8.268L13.5,76.801c0.414,0.116,0.841,0.2,1.292,0.2H85.21
		c0.45,0,0.878-0.084,1.293-0.201L60.176,51.511L49.998,59.792z"/>
	<path fill="#FFFFFF" d="M89.75,26.338L63.654,48.682l26.072,25.055C89.891,73.253,90,72.745,90,72.209V27.791
		C90,27.282,89.898,26.8,89.75,26.338z"/>
	<path fill="#FFFFFF" d="M10.251,26.338C10.102,26.8,10,27.282,10,27.791v44.418c0,0.537,0.11,1.045,0.274,1.527l26.084-25.044
		L10.251,26.338z"/>
</g>
</svg>
