<?xml version="1.0" encoding="utf-8"?>
<!-- Generator: Adobe Illustrator 16.0.0, SVG Export Plug-In . SVG Version: 6.00 Build 0)  -->
<!DOCTYPE svg PUBLIC "-//W3C//DTD SVG 1.1//EN" "http://www.w3.org/Graphics/SVG/1.1/DTD/svg11.dtd">
<svg version="1.1" id="Layer_1" xmlns="http://www.w3.org/2000/svg" xmlns:xlink="http://www.w3.org/1999/xlink" x="0px" y="0px"
	 width="100px" height="100px" viewBox="0 0 100 100" enable-background="new 0 0 100 100" xml:space="preserve">
<g>
	<path fill="#FFFFFF" d="M80.489,10H19.511C14.258,10,10,14.248,10,19.488v61.023C10,85.752,14.258,90,19.511,90h60.979
		C85.742,90,90,85.752,90,80.512V19.488C90,14.248,85.742,10,80.489,10z M65.571,21.349c0-1.232,1.001-2.232,2.237-2.232h10.816
		c1.236,0,2.237,1,2.237,2.232V32.14c0,1.233-1.001,2.232-2.237,2.232H67.809c-1.236,0-2.237-0.999-2.237-2.232V21.349z
		 M50.094,34.744c8.496,0,15.385,6.872,15.385,15.35c0,8.477-6.889,15.348-15.385,15.348c-8.497,0-15.385-6.871-15.385-15.348
		C34.709,41.616,41.597,34.744,50.094,34.744z M81.049,78.465c0,1.232-1.001,2.232-2.237,2.232H21.375c-1.236,0-2.238-1-2.238-2.232
		V43.674h7.485c-0.562,2.046-0.865,4.197-0.865,6.42c0,13.387,10.917,24.277,24.336,24.277c13.418,0,24.336-10.891,24.336-24.277
		c0-2.223-0.303-4.374-0.865-6.42h7.484V78.465z"/>
</g>
</svg>
