<?xml version="1.0" encoding="utf-8"?>
<!-- Generator: Adobe Illustrator 16.0.0, SVG Export Plug-In . SVG Version: 6.00 Build 0)  -->
<!DOCTYPE svg PUBLIC "-//W3C//DTD SVG 1.1//EN" "http://www.w3.org/Graphics/SVG/1.1/DTD/svg11.dtd">
<svg version="1.1" id="Layer_1" xmlns="http://www.w3.org/2000/svg" xmlns:xlink="http://www.w3.org/1999/xlink" x="0px" y="0px"
	 width="100px" height="100px" viewBox="0 0 100 100" enable-background="new 0 0 100 100" xml:space="preserve">
<g display="none">
	
		<line display="inline" fill="none" stroke="#A9CCDB" stroke-width="0.25" stroke-miterlimit="10" x1="0.001" y1="-0.001" x2="100" y2="-0.001"/>
	
		<line display="inline" fill="none" stroke="#A9CCDB" stroke-width="0.25" stroke-miterlimit="10" x1="0.001" y1="9.999" x2="100" y2="9.999"/>
	
		<line display="inline" fill="none" stroke="#A9CCDB" stroke-width="0.25" stroke-miterlimit="10" x1="0.001" y1="19.999" x2="100" y2="19.999"/>
	
		<line display="inline" fill="none" stroke="#A9CCDB" stroke-width="0.25" stroke-miterlimit="10" x1="0.001" y1="29.999" x2="100" y2="29.999"/>
	
		<line display="inline" fill="none" stroke="#A9CCDB" stroke-width="0.25" stroke-miterlimit="10" x1="0.001" y1="39.999" x2="100" y2="39.999"/>
	
		<line display="inline" fill="none" stroke="#A9CCDB" stroke-width="0.25" stroke-miterlimit="10" x1="0.001" y1="49.999" x2="100" y2="49.999"/>
	
		<line display="inline" fill="none" stroke="#A9CCDB" stroke-width="0.25" stroke-miterlimit="10" x1="0.001" y1="59.998" x2="100" y2="59.998"/>
	
		<line display="inline" fill="none" stroke="#A9CCDB" stroke-width="0.25" stroke-miterlimit="10" x1="0.001" y1="69.998" x2="100" y2="69.998"/>
	
		<line display="inline" fill="none" stroke="#FF0000" stroke-width="0.25" stroke-miterlimit="10" x1="0.001" y1="80" x2="100" y2="80"/>
	
		<line display="inline" fill="none" stroke="#A9CCDB" stroke-width="0.25" stroke-miterlimit="10" x1="0.001" y1="90" x2="100" y2="90"/>
	
		<line display="inline" fill="none" stroke="#A9CCDB" stroke-width="0.25" stroke-miterlimit="10" x1="0" y1="-0.001" x2="0" y2="100"/>
	
		<line display="inline" fill="none" stroke="#A9CCDB" stroke-width="0.25" stroke-miterlimit="10" x1="10" y1="-0.001" x2="10" y2="100"/>
	
		<line display="inline" fill="none" stroke="#A9CCDB" stroke-width="0.25" stroke-miterlimit="10" x1="20.001" y1="-0.001" x2="20.001" y2="100"/>
	
		<line display="inline" fill="none" stroke="#A9CCDB" stroke-width="0.25" stroke-miterlimit="10" x1="30" y1="-0.001" x2="30" y2="100"/>
	
		<line display="inline" fill="none" stroke="#A9CCDB" stroke-width="0.25" stroke-miterlimit="10" x1="40" y1="-0.001" x2="40" y2="100"/>
	
		<line display="inline" fill="none" stroke="#A9CCDB" stroke-width="0.25" stroke-miterlimit="10" x1="50" y1="-0.001" x2="50" y2="100"/>
	
		<line display="inline" fill="none" stroke="#A9CCDB" stroke-width="0.25" stroke-miterlimit="10" x1="60" y1="-0.001" x2="60" y2="100"/>
	
		<line display="inline" fill="none" stroke="#A9CCDB" stroke-width="0.25" stroke-miterlimit="10" x1="70" y1="-0.001" x2="70" y2="100"/>
	
		<line display="inline" fill="none" stroke="#A9CCDB" stroke-width="0.25" stroke-miterlimit="10" x1="80" y1="-0.001" x2="80" y2="100"/>
	
		<line display="inline" fill="none" stroke="#A9CCDB" stroke-width="0.25" stroke-miterlimit="10" x1="90" y1="-0.001" x2="90" y2="100"/>
</g>
<path fill="#FFFFFF" d="M100,18.986c-3.68,1.632-7.634,2.734-11.783,3.229c4.236-2.539,7.488-6.56,9.021-11.351
	c-3.965,2.352-8.356,4.059-13.029,4.979c-3.742-3.986-9.074-6.479-14.975-6.479c-11.332,0-20.519,9.186-20.519,20.516
	c0,1.608,0.181,3.174,0.532,4.676c-17.05-0.856-32.167-9.023-42.286-21.436c-1.766,3.03-2.778,6.554-2.778,10.314
	c0,7.117,3.622,13.396,9.127,17.076c-3.363-0.106-6.527-1.028-9.292-2.565c-0.002,0.085-0.002,0.171-0.002,0.258
	c0,9.939,7.072,18.232,16.457,20.117c-1.721,0.471-3.534,0.721-5.405,0.721c-1.322,0-2.607-0.129-3.86-0.367
	c2.611,8.15,10.188,14.082,19.165,14.246c-7.021,5.504-15.868,8.783-25.48,8.783c-1.656,0-3.289-0.098-4.894-0.287
	c9.08,5.82,19.863,9.219,31.449,9.219c37.736,0,58.373-31.264,58.373-58.375c0-0.889-0.021-1.773-0.061-2.653
	C93.771,26.713,97.249,23.102,100,18.986z"/>
</svg>
